<?xml version="1.0" encoding="UTF-8"?>
<svg version="1.1" xmlns="http://www.w3.org/2000/svg" width="500" height="500">
<path d="M0,0 L70,0 L70,1 L71,1 L71,2 L72,2 L72,4 L73,4 L73,6 L74,6 L74,8 L75,8 L75,9 L76,9 L76,11 L77,11 L77,13 L78,13 L78,15 L79,15 L79,16 L80,16 L80,18 L81,18 L81,20 L82,20 L82,22 L83,22 L83,23 L84,23 L84,25 L85,25 L85,27 L86,27 L86,29 L87,29 L87,30 L88,30 L88,32 L89,32 L89,34 L90,34 L90,36 L91,36 L91,37 L92,37 L92,39 L93,39 L93,41 L94,41 L94,43 L95,43 L95,44 L96,44 L96,46 L97,46 L97,48 L98,48 L98,50 L99,50 L99,51 L100,51 L100,53 L101,53 L101,55 L102,55 L102,57 L103,57 L103,58 L104,58 L104,60 L105,60 L105,62 L106,62 L106,64 L107,64 L107,65 L108,65 L108,67 L109,67 L109,69 L110,69 L110,71 L111,71 L111,72 L112,72 L112,74 L113,74 L113,76 L114,76 L114,78 L115,78 L115,79 L116,79 L116,81 L117,81 L117,83 L118,83 L118,85 L119,85 L119,86 L120,86 L120,88 L121,88 L121,90 L122,90 L122,92 L123,92 L123,93 L124,93 L124,95 L125,95 L125,97 L126,97 L126,99 L127,99 L127,100 L128,100 L128,102 L129,102 L129,104 L130,104 L130,106 L131,106 L131,107 L132,107 L132,109 L133,109 L133,111 L134,111 L134,113 L135,113 L135,114 L136,114 L136,116 L137,116 L137,118 L138,118 L138,120 L139,120 L139,121 L140,121 L140,123 L141,123 L141,125 L142,125 L142,127 L143,127 L143,128 L144,128 L144,130 L145,130 L145,132 L146,132 L146,134 L147,134 L147,135 L148,135 L148,137 L149,137 L149,139 L150,139 L150,141 L151,141 L151,142 L152,142 L152,144 L153,144 L153,146 L154,146 L154,148 L155,148 L155,149 L156,149 L156,151 L157,151 L157,153 L158,153 L158,155 L159,155 L159,156 L160,156 L160,158 L161,158 L161,160 L162,160 L162,162 L163,162 L163,163 L164,163 L164,165 L165,165 L165,167 L166,167 L166,169 L167,169 L167,170 L168,170 L168,172 L169,172 L169,174 L170,174 L170,176 L171,176 L171,177 L172,177 L172,179 L173,179 L173,181 L174,181 L174,183 L175,183 L175,184 L176,184 L176,186 L177,186 L177,188 L178,188 L178,190 L179,190 L179,191 L180,191 L180,193 L181,193 L181,195 L182,195 L182,197 L183,197 L183,198 L184,198 L184,200 L185,200 L185,202 L186,202 L186,204 L187,204 L187,205 L188,205 L188,207 L189,207 L189,209 L190,209 L190,211 L191,211 L191,212 L192,212 L192,214 L193,214 L193,216 L194,216 L194,218 L195,218 L195,219 L196,219 L196,221 L197,221 L197,223 L198,223 L198,225 L199,225 L199,226 L200,226 L200,228 L201,228 L201,230 L202,230 L202,232 L203,232 L203,233 L204,233 L204,235 L205,235 L205,237 L206,237 L206,239 L207,239 L207,241 L206,241 L206,243 L205,243 L205,244 L204,244 L204,246 L203,246 L203,248 L202,248 L202,250 L201,250 L201,252 L200,252 L200,253 L199,253 L199,255 L198,255 L198,257 L197,257 L197,259 L196,259 L196,261 L195,261 L195,263 L194,263 L194,264 L193,264 L193,266 L192,266 L192,268 L191,268 L191,270 L190,270 L190,272 L189,272 L189,273 L188,273 L188,275 L187,275 L187,277 L186,277 L186,279 L185,279 L185,281 L184,281 L184,282 L183,282 L183,284 L182,284 L182,286 L181,286 L181,288 L180,288 L180,290 L179,290 L179,292 L178,292 L178,293 L177,293 L177,295 L176,295 L176,297 L175,297 L175,299 L174,299 L174,301 L173,301 L173,302 L172,302 L172,304 L171,304 L171,306 L170,306 L170,308 L169,308 L169,310 L168,310 L168,312 L167,312 L167,313 L166,313 L166,315 L165,315 L165,317 L164,317 L164,319 L163,319 L163,320 L157,320 L157,319 L156,319 L156,317 L155,317 L155,316 L154,316 L154,315 L153,315 L153,314 L152,314 L152,313 L151,313 L151,312 L150,312 L150,311 L149,311 L149,310 L148,310 L148,309 L147,309 L147,308 L146,308 L146,307 L145,307 L145,306 L144,306 L144,305 L143,305 L143,304 L142,304 L142,303 L141,303 L141,302 L140,302 L140,301 L139,301 L139,300 L138,300 L138,299 L137,299 L137,298 L136,298 L136,297 L135,297 L135,296 L133,296 L133,295 L132,295 L132,294 L131,294 L131,293 L130,293 L130,292 L128,292 L128,291 L127,291 L127,290 L126,290 L126,289 L124,289 L124,288 L123,288 L123,287 L122,287 L122,286 L120,286 L120,285 L119,285 L119,284 L117,284 L117,283 L116,283 L116,282 L114,282 L114,281 L112,281 L112,280 L111,280 L111,279 L109,279 L109,278 L107,278 L107,277 L105,277 L105,276 L103,276 L103,275 L101,275 L101,274 L99,274 L99,273 L97,273 L97,272 L95,272 L95,271 L93,271 L93,270 L90,270 L90,269 L88,269 L88,268 L85,268 L85,267 L82,267 L82,266 L79,266 L79,265 L76,265 L76,264 L72,264 L72,263 L68,263 L68,262 L63,262 L63,261 L58,261 L58,260 L49,260 L49,259 L21,259 L21,260 L12,260 L12,261 L7,261 L7,262 L2,262 L2,263 L-2,263 L-2,264 L-6,264 L-6,265 L-9,265 L-9,266 L-12,266 L-12,267 L-15,267 L-15,268 L-18,268 L-18,269 L-20,269 L-20,270 L-23,270 L-23,271 L-25,271 L-25,272 L-27,272 L-27,273 L-29,273 L-29,274 L-31,274 L-31,275 L-33,275 L-33,276 L-35,276 L-35,277 L-37,277 L-37,278 L-39,278 L-39,279 L-41,279 L-41,280 L-42,280 L-42,281 L-44,281 L-44,282 L-46,282 L-46,283 L-47,283 L-47,284 L-49,284 L-49,285 L-50,285 L-50,286 L-52,286 L-52,287 L-53,287 L-53,288 L-54,288 L-54,289 L-56,289 L-56,290 L-57,290 L-57,291 L-58,291 L-58,292 L-60,292 L-60,293 L-61,293 L-61,294 L-62,294 L-62,295 L-63,295 L-63,296 L-65,296 L-65,297 L-66,297 L-66,298 L-67,298 L-67,299 L-68,299 L-68,300 L-69,300 L-69,301 L-70,301 L-70,302 L-71,302 L-71,303 L-72,303 L-72,304 L-73,304 L-73,305 L-74,305 L-74,306 L-75,306 L-75,307 L-76,307 L-76,308 L-77,308 L-77,309 L-78,309 L-78,310 L-79,310 L-79,311 L-80,311 L-80,312 L-81,312 L-81,313 L-82,313 L-82,314 L-83,314 L-83,315 L-84,315 L-84,316 L-85,316 L-85,317 L-86,317 L-86,319 L-87,319 L-87,320 L-93,320 L-93,319 L-94,319 L-94,317 L-95,317 L-95,315 L-96,315 L-96,313 L-97,313 L-97,312 L-98,312 L-98,310 L-99,310 L-99,308 L-100,308 L-100,306 L-101,306 L-101,304 L-102,304 L-102,302 L-103,302 L-103,301 L-104,301 L-104,299 L-105,299 L-105,297 L-106,297 L-106,295 L-107,295 L-107,293 L-108,293 L-108,292 L-109,292 L-109,290 L-110,290 L-110,288 L-111,288 L-111,286 L-112,286 L-112,284 L-113,284 L-113,282 L-114,282 L-114,281 L-115,281 L-115,279 L-116,279 L-116,277 L-117,277 L-117,275 L-118,275 L-118,273 L-119,273 L-119,272 L-120,272 L-120,270 L-121,270 L-121,268 L-122,268 L-122,266 L-123,266 L-123,264 L-124,264 L-124,263 L-125,263 L-125,261 L-126,261 L-126,259 L-127,259 L-127,257 L-128,257 L-128,255 L-129,255 L-129,253 L-130,253 L-130,252 L-131,252 L-131,250 L-132,250 L-132,248 L-133,248 L-133,246 L-134,246 L-134,244 L-135,244 L-135,243 L-136,243 L-136,241 L-137,241 L-137,239 L-136,239 L-136,237 L-135,237 L-135,235 L-134,235 L-134,233 L-133,233 L-133,232 L-132,232 L-132,230 L-131,230 L-131,228 L-130,228 L-130,226 L-129,226 L-129,225 L-128,225 L-128,223 L-127,223 L-127,221 L-126,221 L-126,219 L-125,219 L-125,218 L-124,218 L-124,216 L-123,216 L-123,214 L-122,214 L-122,212 L-121,212 L-121,211 L-120,211 L-120,209 L-119,209 L-119,207 L-118,207 L-118,205 L-117,205 L-117,204 L-116,204 L-116,202 L-115,202 L-115,200 L-114,200 L-114,198 L-113,198 L-113,197 L-112,197 L-112,195 L-111,195 L-111,193 L-110,193 L-110,191 L-109,191 L-109,190 L-108,190 L-108,188 L-107,188 L-107,186 L-106,186 L-106,184 L-105,184 L-105,183 L-104,183 L-104,181 L-103,181 L-103,179 L-102,179 L-102,177 L-101,177 L-101,176 L-100,176 L-100,174 L-99,174 L-99,172 L-98,172 L-98,170 L-97,170 L-97,169 L-96,169 L-96,167 L-95,167 L-95,165 L-94,165 L-94,163 L-93,163 L-93,162 L-92,162 L-92,160 L-91,160 L-91,158 L-90,158 L-90,156 L-89,156 L-89,155 L-88,155 L-88,153 L-87,153 L-87,151 L-86,151 L-86,149 L-85,149 L-85,148 L-84,148 L-84,146 L-83,146 L-83,144 L-82,144 L-82,142 L-81,142 L-81,141 L-80,141 L-80,139 L-79,139 L-79,137 L-78,137 L-78,135 L-77,135 L-77,134 L-76,134 L-76,132 L-75,132 L-75,130 L-74,130 L-74,128 L-73,128 L-73,127 L-72,127 L-72,125 L-71,125 L-71,123 L-70,123 L-70,121 L-69,121 L-69,120 L-68,120 L-68,118 L-67,118 L-67,116 L-66,116 L-66,114 L-65,114 L-65,113 L-64,113 L-64,111 L-63,111 L-63,109 L-62,109 L-62,107 L-61,107 L-61,106 L-60,106 L-60,104 L-59,104 L-59,102 L-58,102 L-58,100 L-57,100 L-57,99 L-56,99 L-56,97 L-55,97 L-55,95 L-54,95 L-54,93 L-53,93 L-53,92 L-52,92 L-52,90 L-51,90 L-51,88 L-50,88 L-50,86 L-49,86 L-49,85 L-48,85 L-48,83 L-47,83 L-47,81 L-46,81 L-46,79 L-45,79 L-45,78 L-44,78 L-44,76 L-43,76 L-43,74 L-42,74 L-42,72 L-41,72 L-41,71 L-40,71 L-40,69 L-39,69 L-39,67 L-38,67 L-38,65 L-37,65 L-37,64 L-36,64 L-36,62 L-35,62 L-35,60 L-34,60 L-34,58 L-33,58 L-33,57 L-32,57 L-32,55 L-31,55 L-31,53 L-30,53 L-30,51 L-29,51 L-29,50 L-28,50 L-28,48 L-27,48 L-27,46 L-26,46 L-26,44 L-25,44 L-25,43 L-24,43 L-24,41 L-23,41 L-23,39 L-22,39 L-22,37 L-21,37 L-21,36 L-20,36 L-20,34 L-19,34 L-19,32 L-18,32 L-18,30 L-17,30 L-17,29 L-16,29 L-16,27 L-15,27 L-15,25 L-14,25 L-14,23 L-13,23 L-13,22 L-12,22 L-12,20 L-11,20 L-11,18 L-10,18 L-10,16 L-9,16 L-9,15 L-8,15 L-8,13 L-7,13 L-7,11 L-6,11 L-6,9 L-5,9 L-5,8 L-4,8 L-4,6 L-3,6 L-3,4 L-2,4 L-2,2 L-1,2 L-1,1 L0,1 Z M36,55 L36,59 L35,59 L35,68 L34,68 L34,83 L33,83 L33,86 L32,86 L32,88 L31,88 L31,90 L30,90 L30,91 L29,91 L29,93 L28,93 L28,95 L27,95 L27,97 L26,97 L26,98 L25,98 L25,100 L24,100 L24,102 L23,102 L23,104 L22,104 L22,105 L21,105 L21,107 L20,107 L20,109 L19,109 L19,111 L18,111 L18,112 L17,112 L17,114 L16,114 L16,116 L15,116 L15,118 L14,118 L14,119 L13,119 L13,121 L12,121 L12,123 L11,123 L11,125 L10,125 L10,126 L9,126 L9,128 L8,128 L8,130 L7,130 L7,132 L6,132 L6,133 L5,133 L5,135 L4,135 L4,137 L3,137 L3,139 L2,139 L2,140 L1,140 L1,142 L0,142 L0,144 L-1,144 L-1,146 L-2,146 L-2,147 L-3,147 L-3,149 L-4,149 L-4,151 L-5,151 L-5,153 L-6,153 L-6,154 L-7,154 L-7,156 L-8,156 L-8,158 L-9,158 L-9,160 L-10,160 L-10,161 L-11,161 L-11,163 L-12,163 L-12,165 L-13,165 L-13,167 L-14,167 L-14,168 L-15,168 L-15,170 L-16,170 L-16,172 L-17,172 L-17,174 L-18,174 L-18,175 L-19,175 L-19,177 L33,177 L33,188 L34,188 L34,207 L35,207 L35,217 L36,217 L36,220 L37,220 L37,219 L38,219 L38,177 L89,177 L89,175 L88,175 L88,174 L87,174 L87,172 L86,172 L86,170 L85,170 L85,168 L84,168 L84,167 L83,167 L83,165 L82,165 L82,163 L81,163 L81,161 L80,161 L80,160 L79,160 L79,158 L78,158 L78,156 L77,156 L77,154 L76,154 L76,153 L75,153 L75,151 L74,151 L74,149 L73,149 L73,147 L72,147 L72,146 L71,146 L71,144 L70,144 L70,142 L69,142 L69,140 L68,140 L68,139 L67,139 L67,137 L66,137 L66,135 L65,135 L65,133 L64,133 L64,132 L63,132 L63,130 L62,130 L62,128 L61,128 L61,126 L60,126 L60,125 L59,125 L59,123 L58,123 L58,121 L57,121 L57,119 L56,119 L56,118 L55,118 L55,116 L54,116 L54,114 L53,114 L53,112 L52,112 L52,111 L51,111 L51,109 L50,109 L50,107 L49,107 L49,105 L48,105 L48,104 L47,104 L47,102 L46,102 L46,100 L45,100 L45,98 L44,98 L44,97 L43,97 L43,95 L42,95 L42,93 L41,93 L41,91 L40,91 L40,90 L39,90 L39,87 L38,87 L38,57 L37,57 L37,55 Z " fill="#000000" transform="translate(215,87)"/>
</svg>
